<svg width="1025" height="1025" viewBox="0 0 1025 1025" fill="none" xmlns="http://www.w3.org/2000/svg">
<path d="M0 512.261C0 795.176 229.586 1024.52 512.5 1024.52C795.414 1024.52 1025 795.176 1025 512.261C1025 229.347 795.414 0 512.5 0C229.586 0 0 229.347 0 512.261Z" fill="#171717"/>
<path d="M253 619.31L296.69 699.808C305.526 718.103 323.199 730.648 343.326 730.648H634.43L574.049 619.31H253Z" fill="#13AFF0"/>
<path d="M772.373 619.833C772.373 608.856 769.427 598.401 764.027 589.515L593.194 273.795C584.358 256.022 567.176 244 547.049 244H456.724L720.337 730.126L762.064 653.286C769.918 638.65 772.373 632.378 772.373 619.833Z" fill="#13AFF0"/>
<path d="M531.341 539.857L414.015 322.93L296.199 539.857H531.341Z" fill="#13AFF0"/>
</svg>
