<svg width="1024" height="1024" viewBox="0 0 1024 1024" fill="none" xmlns="http://www.w3.org/2000/svg">
<path d="M0 512C0 229.23 229.23 0 512 0C794.77 0 1024 229.23 1024 512C1024 794.77 794.77 1024 512 1024C229.23 1024 0 794.77 0 512Z" fill="#262626"/>
<path d="M512.643 546.345H512.752C516.613 546.345 520.429 545.225 523.516 543.186L524.353 542.648C524.536 542.529 524.726 542.421 524.918 542.293L534.671 534.224L767.463 342.12C766.981 341.455 766.16 341 765.286 341H258.705C258.076 341 257.493 341.228 257.029 341.61L500.585 542.356C503.654 544.897 508.034 546.345 512.643 546.345ZM256 368.22V652.974L430.473 512.031L256 368.22ZM593.709 512.988L768 653.047V369.168L593.709 512.988ZM538.295 558.703C531.347 564.403 522.259 567.546 512.715 567.546C503.135 567.546 494.056 564.422 487.126 558.748L447.166 525.791L256 680.195V680.686C256 682.153 257.257 683.4 258.741 683.4H765.295C766.752 683.4 767.999 682.153 767.999 680.677V680.222L576.998 526.757L538.295 558.703Z" fill="#F1F1F1"/>
</svg>
