<svg width="64" height="64" viewBox="0 0 64 64" fill="none" xmlns="http://www.w3.org/2000/svg">
    <path d="M0 32C0 14.3269 14.3269 0 32 0C49.6731 0 64 14.3269 64 32C64 49.6731 49.6731 64 32 64C14.3269 64 0 49.6731 0 32Z" fill="#262626"/>
    <path d="M38.7672 26.6771C38.32 26.6771 37.8859 26.8402 37.8859 27.2191V30.7546H34.835V27.2191C34.835 26.8402 34.4009 26.6771 33.9536 26.6771C33.5064 26.6771 33.0722 26.8402 33.0722 27.2191V36.0233C33.0722 36.3879 33.5195 36.5785 33.9536 36.5785C34.3877 36.5785 34.835 36.3891 34.835 36.0233V32.1364H37.8859V36.0233C37.8859 36.3879 38.3331 36.5785 38.7672 36.5785C39.2014 36.5785 39.6486 36.3891 39.6486 36.0233V27.2179C39.6486 26.8391 39.2145 26.676 38.7672 26.676V26.6771ZM19.6826 28.2198H18.1905V31.1049H19.6826C20.5639 31.1049 21.134 30.7403 21.134 29.6695C21.134 28.5986 20.5651 28.2198 19.6826 28.2198ZM45.6276 27.1917C45.506 26.7855 44.9896 26.596 44.4886 26.596C43.9876 26.596 43.4855 26.7855 43.3638 27.1917L40.7471 35.7102C40.7339 35.765 40.7197 35.8186 40.7197 35.846C40.7197 36.2796 41.3566 36.5774 41.8313 36.5774C42.1294 36.5774 42.3597 36.4821 42.4277 36.2248L42.9429 34.4226H46.0486L46.5649 36.2248C46.6329 36.4832 46.8631 36.5774 47.1613 36.5774C47.6349 36.5774 48.2729 36.2653 48.2729 35.846C48.2729 35.8055 48.2597 35.765 48.2455 35.7102L45.6287 27.1917H45.6276ZM43.3102 33.0419L44.4897 28.8844L45.6693 33.0419H43.309H43.3102ZM28.571 28.2187C29.8591 28.2187 29.9534 29.1396 29.9808 29.56C29.9939 29.9662 30.3601 30.1151 30.8622 30.1151C31.4586 30.1151 31.7436 29.952 31.7436 29.2479C31.7436 27.6767 30.4007 26.6749 28.5162 26.6749C26.8082 26.6749 25.3842 27.5158 25.3842 29.7768V33.5554C25.3842 35.8175 26.794 36.6573 28.502 36.6573C30.4007 36.6573 31.7436 35.615 31.7436 33.9758C31.7436 33.285 31.4585 33.1087 30.8479 33.1087C30.3864 33.1087 30.0071 33.2444 29.9797 33.6638C29.9403 34.2321 29.8306 35.1135 28.5973 35.1135V35.1113C27.6611 35.1113 27.1459 34.6109 27.1459 33.5543V29.7757C27.1459 28.7202 27.6611 28.2187 28.5699 28.2187H28.571Z" fill="white"/>
    <path d="M57.215 23.6069H6.78618C5.74694 23.6069 4.90505 24.4478 4.90505 25.4858V37.8421C4.90505 38.8801 5.74587 39.721 6.78618 39.721H51.0102L55.3919 45.3533C55.6781 45.7201 55.9367 45.9041 56.1231 45.9041C56.3095 45.9041 56.4246 45.7223 56.4257 45.3588L56.418 39.7943V39.721H57.215C58.2532 39.721 59.0962 38.8801 59.0962 37.8421V25.4858C59.0962 24.4489 58.2542 23.6069 57.215 23.6069ZM15.3293 27.5432L12.7257 36.0617C12.604 36.4679 12.1019 36.6574 11.5867 36.6574C11.0714 36.6574 10.5836 36.4679 10.4477 36.0617L7.8309 27.5432C7.81773 27.4885 7.80349 27.4348 7.80349 27.4074C7.80349 26.9739 8.44155 26.676 8.91514 26.676C9.21331 26.676 9.44349 26.7702 9.51148 27.0286L11.5867 34.3689L13.6477 27.0286C13.7156 26.7713 13.9458 26.676 14.244 26.676C14.7187 26.676 15.3556 26.9881 15.3556 27.4074C15.3556 27.448 15.3425 27.4885 15.3282 27.5432H15.3293ZM21.8641 36.6454C21.6207 36.6454 21.3894 36.4964 21.2535 36.2259L19.3274 32.4879H18.1883V36.0234C18.1883 36.388 17.7542 36.5785 17.307 36.5785C16.8597 36.5785 16.4256 36.3891 16.4256 36.0234V27.218H16.4266C16.4266 26.9333 16.6569 26.676 16.9956 26.676H19.6804C21.4574 26.676 22.8946 27.3527 22.8946 29.5075C22.8946 31.0645 22.1348 31.9043 21.1175 32.2164L22.8946 35.5066C22.9494 35.5745 22.9614 35.6698 22.9614 35.7234C22.9614 36.1701 22.3782 36.6442 21.8641 36.6442V36.6454ZM56.1966 35.5953C56.1966 36.6322 55.3546 37.4742 54.3154 37.4742H25.8117C24.7735 37.4742 23.9305 36.6333 23.9305 35.5953V27.6582C23.9305 26.6213 24.7724 25.7793 25.8117 25.7793H54.3154C55.3536 25.7793 56.1966 26.6202 56.1966 27.6582V35.5953Z" fill="white"/>
    <path d="M54.1838 26.6771H48.4482C48.069 26.6771 47.8925 27.0844 47.8925 27.4633C47.8925 27.8958 48.0964 28.2615 48.4482 28.2615H50.4412V36.0212C50.4412 36.3859 50.8885 36.5764 51.3226 36.5764C51.7568 36.5764 52.204 36.3869 52.204 36.0212V28.2615H54.1838C54.5358 28.2615 54.7397 27.8826 54.7397 27.4633C54.7397 27.0834 54.5632 26.6771 54.1838 26.6771Z" fill="white"/>
    <path d="M57.2149 22.4375H6.78613C5.14393 22.4375 3.80652 23.7722 3.80652 25.4135V37.842C3.80652 39.4833 5.14393 40.818 6.78613 40.818H50.4719L54.5259 46.0266C55.029 46.6726 55.5662 47 56.1231 47C56.4827 47 56.8181 46.861 57.0703 46.6091C57.3706 46.3069 57.523 45.8854 57.5219 45.3521L57.5164 40.8016C59.0172 40.6494 60.1935 39.3804 60.1935 37.841V25.4135C60.1935 23.7711 58.8571 22.4375 57.2149 22.4375ZM59.0962 37.8421C59.0962 38.8801 58.2532 39.721 57.215 39.721H56.418V39.7943L56.4257 45.3588C56.4246 45.7223 56.3095 45.9041 56.1231 45.9041C55.9367 45.9041 55.6781 45.7201 55.3919 45.3533L51.0102 39.721H6.78618C5.74587 39.721 4.90505 38.8801 4.90505 37.8421V25.4858C4.90505 24.4478 5.74694 23.6069 6.78618 23.6069H57.215C58.2542 23.6069 59.0962 24.4489 59.0962 25.4858V37.8421Z" fill="black"/>
    <path d="M14.2451 26.6771C13.9469 26.6771 13.7167 26.7723 13.6487 27.0296L11.5877 34.37L9.51252 27.0296C9.44459 26.7713 9.21435 26.6771 8.91618 26.6771C8.44259 26.6771 7.8046 26.9749 7.8046 27.4085C7.8046 27.4359 7.8177 27.4895 7.83201 27.5442L10.4487 36.0628C10.5846 36.469 11.0725 36.6584 11.5877 36.6584C12.103 36.6584 12.6051 36.469 12.7268 36.0628L15.3303 27.5442C15.3435 27.4895 15.3577 27.4501 15.3577 27.4085C15.3577 26.9891 14.7208 26.6771 14.2462 26.6771H14.2451ZM21.1186 32.2163C22.1359 31.9043 22.8956 31.0656 22.8956 29.5075C22.8956 27.3526 21.4584 26.676 19.6814 26.676H16.9967C16.6569 26.676 16.4277 26.9333 16.4277 27.2179L16.4266 27.218L16.4266 36.0233C16.4266 36.3879 16.8608 36.5785 17.308 36.5785C17.7553 36.5785 18.1894 36.3891 18.1894 36.0233V32.4878H19.3284L21.2545 36.2259C21.3904 36.4964 21.6218 36.6453 21.8652 36.6453C22.3804 36.6453 22.9625 36.1712 22.9625 35.7245C22.9625 35.6697 22.9504 35.5755 22.8956 35.5077L21.1186 32.2174V32.2163ZM19.6826 31.1049H18.1905V28.2198H19.6826C20.5639 28.2198 21.134 28.5986 21.134 29.6695C21.134 30.7403 20.5651 31.1049 19.6826 31.1049ZM43.3102 33.0419L45.6703 33.0419L44.4897 28.8844L43.3102 33.0419Z" fill="black"/>
    <path d="M54.3154 25.7793H25.8117C24.7724 25.7793 23.9305 26.6213 23.9305 27.6582V35.5953C23.9305 36.6333 24.7735 37.4742 25.8117 37.4742H54.3154C55.3546 37.4742 56.1966 36.6322 56.1966 35.5953V27.6582C56.1966 26.6202 55.3536 25.7793 54.3154 25.7793ZM28.5983 35.1124V35.1146C29.8315 35.1146 29.9412 34.2343 29.9806 33.6649C30.008 33.2455 30.3874 33.1098 30.8489 33.1098C31.4595 33.1098 31.7445 33.286 31.7445 33.977C31.7445 35.6161 30.4016 36.6584 28.5029 36.6584C26.7949 36.6584 25.3852 35.8186 25.3852 33.5565V29.7779C25.3852 27.5169 26.8092 26.676 28.5171 26.676C30.4016 26.676 31.7445 27.6779 31.7445 29.2491C31.7445 29.9531 31.4595 30.1163 30.8632 30.1163C30.361 30.1163 29.9949 29.9673 29.9818 29.5612C29.9544 29.1417 29.8601 28.2198 28.5719 28.2198C27.6631 28.2198 27.1479 28.7213 27.1479 29.7768V33.5554C27.1479 34.6121 27.6631 35.1124 28.5994 35.1124H28.5983ZM39.6485 36.0212C39.6485 36.388 39.2012 36.5774 38.7671 36.5774C38.333 36.5774 37.8858 36.388 37.8858 36.0223V32.1353H34.8349V36.0223C34.8349 36.3869 34.3876 36.5774 33.9535 36.5774C33.5193 36.5774 33.0721 36.388 33.0721 36.0223V27.218C33.0721 26.8391 33.5062 26.676 33.9535 26.676C34.4007 26.676 34.8349 26.8391 34.8349 27.218V30.7535H37.8858V27.218C37.8858 26.8391 38.32 26.676 38.7672 26.676C39.2145 26.676 39.6486 26.8391 39.6486 27.2179L39.6485 36.0212ZM47.1601 36.5774C46.8619 36.5774 46.6317 36.4832 46.5637 36.2249L46.0473 34.4226H42.9417L42.4264 36.2249C42.3585 36.4822 42.1282 36.5774 41.8301 36.5774C41.3554 36.5774 40.7184 36.2796 40.7184 35.846C40.7184 35.8186 40.7316 35.765 40.7458 35.7103L43.3626 27.1917C43.4843 26.7855 43.9864 26.5961 44.4874 26.5961C44.9884 26.5961 45.5047 26.7855 45.6264 27.1917L48.2432 35.7103C48.2563 35.765 48.2706 35.8044 48.2706 35.846C48.2706 36.2654 47.6325 36.5774 47.1589 36.5774H47.1601ZM54.1838 28.2615H52.204V36.0212C52.204 36.3859 51.7568 36.5764 51.3226 36.5764C50.8885 36.5764 50.4412 36.3869 50.4412 36.0212V28.2615H48.4482C48.0964 28.2615 47.8925 27.8947 47.8925 27.4633C47.8925 27.0844 48.069 26.6771 48.4482 26.6771H54.1838C54.5632 26.6771 54.7397 27.0834 54.7397 27.4633C54.7397 27.8826 54.5358 28.2615 54.1838 28.2615Z" fill="black"/>
    </svg>
    