<svg width="1024" height="1024" viewBox="0 0 1024 1024" fill="none" xmlns="http://www.w3.org/2000/svg">
<path d="M0 512C0 229.23 229.23 0 512 0C794.77 0 1024 229.23 1024 512C1024 794.77 794.77 1024 512 1024C229.23 1024 0 794.77 0 512Z" fill="#262626"/>
<path d="M607.05 442.548C600.768 442.548 594.671 444.839 594.671 450.161V499.82H551.819V450.161C551.819 444.839 545.721 442.548 539.439 442.548C533.157 442.548 527.059 444.839 527.059 450.161V573.824C527.059 578.945 533.341 581.621 539.439 581.621C545.536 581.621 551.819 578.961 551.819 573.824V519.228H594.671V573.824C594.671 578.945 600.953 581.621 607.05 581.621C613.148 581.621 619.43 578.961 619.43 573.824V450.145C619.43 444.824 613.333 442.533 607.05 442.533V442.548ZM338.991 464.217H318.034V504.741H338.991C351.37 504.741 359.377 499.62 359.377 484.579C359.377 469.538 351.386 464.217 338.991 464.217ZM703.41 449.776C701.701 444.071 694.448 441.41 687.411 441.41C680.375 441.41 673.322 444.071 671.613 449.776L634.859 569.426C634.674 570.195 634.474 570.948 634.474 571.333C634.474 577.423 643.42 581.606 650.087 581.606C654.275 581.606 657.509 580.268 658.464 576.654L665.701 551.34H709.323L716.575 576.654C717.53 580.283 720.763 581.606 724.951 581.606C731.603 581.606 740.565 577.223 740.565 571.333C740.565 570.764 740.38 570.195 740.18 569.426L703.425 449.776H703.41ZM670.859 531.947L687.427 473.552L703.995 531.947H670.843H670.859ZM463.836 464.202C481.928 464.202 483.252 477.136 483.637 483.041C483.822 488.747 488.965 490.838 496.017 490.838C504.394 490.838 508.397 488.547 508.397 478.658C508.397 456.589 489.535 442.517 463.066 442.517C439.076 442.517 419.074 454.328 419.074 486.086V539.16C419.074 570.933 438.876 582.729 462.866 582.729C489.535 582.729 508.397 568.088 508.397 545.065C508.397 535.361 504.393 532.885 495.817 532.885C489.334 532.885 484.007 534.792 483.622 540.682C483.068 548.664 481.528 561.044 464.205 561.044V561.013C451.056 561.013 443.819 553.985 443.819 539.144V486.071C443.819 471.245 451.056 464.202 463.82 464.202H463.836Z" fill="white"/>
<path d="M866.164 399.425H157.851C143.254 399.425 131.429 411.236 131.429 425.815V599.369C131.429 613.948 143.239 625.76 157.851 625.76H779.013L840.558 704.87C844.577 710.022 848.21 712.606 850.828 712.606C853.446 712.606 855.062 710.053 855.078 704.947L854.97 626.79V625.76H866.164C880.746 625.76 892.587 613.948 892.587 599.369V425.815C892.587 411.251 880.761 399.425 866.164 399.425ZM277.846 454.713L241.276 574.362C239.567 580.068 232.515 582.729 225.278 582.729C218.041 582.729 211.189 580.068 209.28 574.362L172.525 454.713C172.34 453.944 172.14 453.19 172.14 452.806C172.14 446.716 181.102 442.533 187.754 442.533C191.942 442.533 195.175 443.855 196.13 447.485L225.278 550.586L254.226 447.485C255.18 443.871 258.414 442.533 262.602 442.533C269.269 442.533 278.216 446.916 278.216 452.806C278.216 453.375 278.031 453.944 277.831 454.713H277.846ZM369.632 582.56C366.214 582.56 362.965 580.468 361.056 576.669L334.002 524.165H318.003V573.824C318.003 578.945 311.906 581.621 305.624 581.621C299.341 581.621 293.244 578.961 293.244 573.824V450.145H293.259C293.259 446.147 296.493 442.533 301.251 442.533H338.96C363.92 442.533 384.106 452.037 384.106 482.303C384.106 504.172 373.435 515.968 359.146 520.351L384.106 566.565C384.876 567.519 385.045 568.857 385.045 569.61C385.045 575.885 376.854 582.544 369.632 582.544V582.56ZM851.86 567.811C851.86 582.375 840.034 594.202 825.437 594.202H425.08C410.498 594.202 398.657 582.39 398.657 567.811V456.328C398.657 441.764 410.482 429.937 425.08 429.937H825.437C840.019 429.937 851.86 441.748 851.86 456.328V567.811Z" fill="white"/>
<path d="M823.589 442.548H743.028C737.701 442.548 735.222 448.269 735.222 453.59C735.222 459.665 738.086 464.802 743.028 464.802H771.021V573.793C771.021 578.915 777.304 581.591 783.401 581.591C789.499 581.591 795.781 578.93 795.781 573.793V464.802H823.589C828.532 464.802 831.396 459.48 831.396 453.59C831.396 448.254 828.917 442.548 823.589 442.548Z" fill="white"/>
<path d="M866.164 383H157.851C134.785 383 116 401.747 116 424.8V599.369C116 622.422 134.785 641.169 157.851 641.169H771.453L828.394 714.328C835.461 723.402 843.006 728 850.828 728C855.879 728 860.59 726.047 864.132 722.51C868.351 718.265 870.491 712.344 870.476 704.854L870.399 640.939C891.478 638.801 908 620.977 908 599.354V424.8C908 401.732 889.23 383 866.164 383ZM892.587 599.369C892.587 613.948 880.746 625.76 866.164 625.76H854.97V626.79L855.078 704.947C855.062 710.053 853.446 712.606 850.828 712.606C848.21 712.606 844.577 710.022 840.558 704.87L779.013 625.76H157.851C143.239 625.76 131.429 613.948 131.429 599.369V425.815C131.429 411.236 143.254 399.425 157.851 399.425H866.164C880.761 399.425 892.587 411.251 892.587 425.815V599.369Z" fill="black"/>
<path d="M262.618 442.548C258.429 442.548 255.196 443.886 254.241 447.5L225.293 550.602L196.145 447.5C195.191 443.871 191.957 442.548 187.769 442.548C181.117 442.548 172.156 446.731 172.156 452.821C172.156 453.206 172.34 453.959 172.541 454.728L209.295 574.378C211.204 580.084 218.056 582.744 225.293 582.744C232.53 582.744 239.583 580.084 241.292 574.378L277.861 454.728C278.046 453.959 278.246 453.406 278.246 452.821C278.246 446.931 269.3 442.548 262.633 442.548H262.618ZM359.162 520.351C373.451 515.968 384.121 504.188 384.121 482.303C384.121 452.037 363.935 442.533 338.975 442.533H301.266C296.493 442.533 293.275 446.147 293.275 450.145H293.259L293.259 573.824C293.259 578.945 299.357 581.621 305.639 581.621C311.921 581.621 318.019 578.961 318.019 573.824V524.165H334.017L361.071 576.669C362.98 580.468 366.229 582.56 369.648 582.56C376.885 582.56 385.061 575.9 385.061 569.626C385.061 568.857 384.891 567.534 384.121 566.581L359.162 520.366V520.351ZM338.991 504.741H318.034V464.217H338.991C351.37 464.217 359.377 469.538 359.377 484.579C359.377 499.62 351.386 504.741 338.991 504.741ZM670.859 531.947H704.01L687.427 473.552L670.859 531.947Z" fill="black"/>
<path d="M825.437 429.937H425.08C410.482 429.937 398.657 441.764 398.657 456.328V567.811C398.657 582.39 410.498 594.202 425.08 594.202H825.437C840.034 594.202 851.86 582.375 851.86 567.811V456.328C851.86 441.748 840.019 429.937 825.437 429.937ZM464.221 561.029V561.06C481.543 561.06 483.083 548.695 483.637 540.698C484.022 534.807 489.35 532.9 495.832 532.9C504.409 532.9 508.412 535.376 508.412 545.081C508.412 568.103 489.55 582.744 462.881 582.744C438.891 582.744 419.09 570.948 419.09 539.175V486.102C419.09 454.344 439.092 442.533 463.081 442.533C489.55 442.533 508.412 456.605 508.412 478.674C508.412 488.562 504.409 490.854 496.033 490.854C488.98 490.854 483.837 488.762 483.653 483.057C483.268 477.166 481.944 464.217 463.851 464.217C451.086 464.217 443.849 471.261 443.849 486.086V539.16C443.849 554.001 451.086 561.029 464.236 561.029H464.221ZM619.43 573.793C619.43 578.945 613.148 581.606 607.05 581.606C600.953 581.606 594.671 578.945 594.671 573.809V519.213H551.819V573.809C551.819 578.93 545.536 581.606 539.439 581.606C533.341 581.606 527.059 578.945 527.059 573.809V450.145C527.059 444.824 533.157 442.533 539.439 442.533C545.721 442.533 551.819 444.824 551.819 450.145V499.804H594.671V450.145C594.671 444.824 600.768 442.533 607.05 442.533C613.333 442.533 619.43 444.824 619.43 450.145V573.793ZM724.936 581.606C720.748 581.606 717.514 580.283 716.559 576.654L709.307 551.34H665.685L658.448 576.654C657.494 580.268 654.26 581.606 650.072 581.606C643.405 581.606 634.458 577.423 634.458 571.333C634.458 570.948 634.643 570.195 634.843 569.426L671.598 449.776C673.307 444.071 680.359 441.41 687.396 441.41C694.433 441.41 701.685 444.071 703.394 449.776L740.149 569.426C740.334 570.195 740.534 570.748 740.534 571.333C740.534 577.223 731.572 581.606 724.92 581.606H724.936ZM823.589 464.802H795.781V573.793C795.781 578.915 789.499 581.591 783.401 581.591C777.304 581.591 771.021 578.93 771.021 573.793V464.802H743.028C738.086 464.802 735.222 459.65 735.222 453.59C735.222 448.269 737.701 442.548 743.028 442.548H823.589C828.917 442.548 831.396 448.254 831.396 453.59C831.396 459.48 828.532 464.802 823.589 464.802Z" fill="black"/>
</svg>
